<?xml version="1.0"?>
<!-- Generated by SVGo and Plotinum VG -->
<svg width="960pt" height="720pt" viewBox="0 0 960 720"
	xmlns="http://www.w3.org/2000/svg"
	xmlns:xlink="http://www.w3.org/1999/xlink">
<g transform="scale(1, -1) translate(0, -720)">
<path d="M0,0L960,0L960,720L0,720Z" style="fill:#FFFFFF" />
<text x="353.04" y="-710.61" transform="scale(1, -1)"
	style="font-family:Liberation Serif;font-variant:normal;font-weight:normal;font-style:normal;font-size:12px">archive/tar memory usage for 100 files, 1.0 MB each</text>
<text x="471.72" y="-3.9023" transform="scale(1, -1)"
	style="font-family:Liberation Serif;font-variant:normal;font-weight:normal;font-style:normal;font-size:12px">Files in archive</text>
<text x="55.163" y="-16.541" transform="scale(1, -1)"
	style="font-family:Liberation Serif;font-variant:normal;font-weight:normal;font-style:normal;font-size:10px">0</text>
<text x="326.02" y="-16.541" transform="scale(1, -1)"
	style="font-family:Liberation Serif;font-variant:normal;font-weight:normal;font-style:normal;font-size:10px">30</text>
<text x="599.38" y="-16.541" transform="scale(1, -1)"
	style="font-family:Liberation Serif;font-variant:normal;font-weight:normal;font-style:normal;font-size:10px">60</text>
<text x="872.74" y="-16.541" transform="scale(1, -1)"
	style="font-family:Liberation Serif;font-variant:normal;font-weight:normal;font-style:normal;font-size:10px">90</text>
<path d="M57.663,24.363L57.663,32.363" style="fill:none;stroke:#000000;stroke-width:0.5" />
<path d="M331.02,24.363L331.02,32.363" style="fill:none;stroke:#000000;stroke-width:0.5" />
<path d="M604.38,24.363L604.38,32.363" style="fill:none;stroke:#000000;stroke-width:0.5" />
<path d="M877.74,24.363L877.74,32.363" style="fill:none;stroke:#000000;stroke-width:0.5" />
<path d="M148.78,28.363L148.78,32.363" style="fill:none;stroke:#000000;stroke-width:0.5" />
<path d="M239.9,28.363L239.9,32.363" style="fill:none;stroke:#000000;stroke-width:0.5" />
<path d="M422.14,28.363L422.14,32.363" style="fill:none;stroke:#000000;stroke-width:0.5" />
<path d="M513.26,28.363L513.26,32.363" style="fill:none;stroke:#000000;stroke-width:0.5" />
<path d="M695.5,28.363L695.5,32.363" style="fill:none;stroke:#000000;stroke-width:0.5" />
<path d="M786.62,28.363L786.62,32.363" style="fill:none;stroke:#000000;stroke-width:0.5" />
<path d="M57.663,32.363L959.75,32.363" style="fill:none;stroke:#000000;stroke-width:0.5" />
<g transform="rotate(90)">
<text x="337.64" y="9.3867" transform="scale(1, -1)"
	style="font-family:Liberation Serif;font-variant:normal;font-weight:normal;font-style:normal;font-size:12px">Memory usage</text>
</g>
<text x="29.493" y="-38.174" transform="scale(1, -1)"
	style="font-family:Liberation Serif;font-variant:normal;font-weight:normal;font-style:normal;font-size:10px">0B</text>
<text x="15.885" y="-327.01" transform="scale(1, -1)"
	style="font-family:Liberation Serif;font-variant:normal;font-weight:normal;font-style:normal;font-size:10px">8.0EB</text>
<text x="18.385" y="-615.84" transform="scale(1, -1)"
	style="font-family:Liberation Serif;font-variant:normal;font-weight:normal;font-style:normal;font-size:10px">16EB</text>
<text x="15.885" y="-182.59" transform="scale(1, -1)"
	style="font-family:Liberation Serif;font-variant:normal;font-weight:normal;font-style:normal;font-size:10px">4.0EB</text>
<text x="18.385" y="-471.42" transform="scale(1, -1)"
	style="font-family:Liberation Serif;font-variant:normal;font-weight:normal;font-style:normal;font-size:10px">12EB</text>
<path d="M43.663,40.459L51.663,40.459" style="fill:none;stroke:#000000;stroke-width:0.5" />
<path d="M43.663,329.29L51.663,329.29" style="fill:none;stroke:#000000;stroke-width:0.5" />
<path d="M43.663,618.12L51.663,618.12" style="fill:none;stroke:#000000;stroke-width:0.5" />
<path d="M43.663,184.88L51.663,184.88" style="fill:none;stroke:#000000;stroke-width:0.5" />
<path d="M43.663,473.71L51.663,473.71" style="fill:none;stroke:#000000;stroke-width:0.5" />
<path d="M51.663,40.459L51.663,706.46" style="fill:none;stroke:#000000;stroke-width:0.5" />
<path d="M57.663,40.459L57.663,706.46" style="fill:none;stroke:#808080;stroke-width:0.25" />
<path d="M331.02,40.459L331.02,706.46" style="fill:none;stroke:#808080;stroke-width:0.25" />
<path d="M604.38,40.459L604.38,706.46" style="fill:none;stroke:#808080;stroke-width:0.25" />
<path d="M877.74,40.459L877.74,706.46" style="fill:none;stroke:#808080;stroke-width:0.25" />
<path d="M57.663,40.459L959.75,40.459" style="fill:none;stroke:#808080;stroke-width:0.25" />
<path d="M57.663,329.29L959.75,329.29" style="fill:none;stroke:#808080;stroke-width:0.25" />
<path d="M57.663,618.12L959.75,618.12" style="fill:none;stroke:#808080;stroke-width:0.25" />
<path d="M57.663,184.88L959.75,184.88" style="fill:none;stroke:#808080;stroke-width:0.25" />
<path d="M57.663,473.71L959.75,473.71" style="fill:none;stroke:#808080;stroke-width:0.25" />
<path d="M57.663,40.459L66.775,40.459L75.887,40.459L84.999,40.459L94.111,40.459L103.22,40.459L112.34,40.459L121.45,40.459L130.56,40.459L139.67,40.459L148.78,40.459L157.89,40.459L167.01,40.459L176.12,40.459L185.23,40.459L194.34,40.459L203.45,40.459L212.57,40.459L221.68,40.459L230.79,40.459L239.9,40.459L249.01,40.459L258.13,40.459L267.24,40.459L276.35,40.459L285.46,40.459L294.57,40.459L303.69,40.459L312.8,40.459L321.91,40.459L331.02,40.459L340.13,40.459L349.25,40.459L358.36,40.459L367.47,40.459L376.58,40.459L385.69,40.459L394.81,40.459L403.92,40.459L413.03,40.459L422.14,40.459L431.25,40.459L440.37,40.459L449.48,40.459L458.59,40.459L467.7,40.459L476.81,40.459L485.93,40.459L495.04,40.459L504.15,40.459L513.26,40.459L522.37,40.459L531.49,40.459L540.6,40.459L549.71,40.459L558.82,40.459L567.93,40.459L577.05,40.459L586.16,40.459L595.27,40.459L604.38,40.459L613.49,40.459L622.61,40.459L631.72,40.459L640.83,706.46L649.94,706.46L659.05,706.46L668.17,706.46L677.28,706.46L686.39,706.46L695.5,706.46L704.61,706.46L713.73,706.46L722.84,706.46L731.95,706.46L741.06,706.46L750.17,706.46L759.29,706.46L768.4,706.46L777.51,706.46L786.62,706.46L795.73,706.46L804.85,706.46L813.96,706.46L823.07,706.46L832.18,706.46L841.29,706.46L850.41,706.46L859.52,706.46L868.63,706.46L877.74,706.46L886.85,706.46L895.97,706.46L905.08,706.46L914.19,706.46L923.3,706.46L932.41,706.46L941.53,706.46L950.64,706.46L959.75,706.46" style="fill:none;stroke:#4575B4;stroke-width:0.5" />
<path d="M57.663,40.459L66.775,40.459L75.887,40.459L84.999,40.459L94.111,40.459L103.22,40.459L112.34,40.459L121.45,40.459L130.56,40.459L139.67,40.459L148.78,40.459L157.89,40.459L167.01,40.459L176.12,40.459L185.23,40.459L194.34,40.459L203.45,40.459L212.57,40.459L221.68,40.459L230.79,40.459L239.9,40.459L249.01,40.459L258.13,40.459L267.24,40.459L276.35,40.459L285.46,40.459L294.57,40.459L303.69,40.459L312.8,40.459L321.91,40.459L331.02,40.459L340.13,40.459L349.25,40.459L358.36,40.459L367.47,40.459L376.58,40.459L385.69,40.459L394.81,40.459L403.92,40.459L413.03,40.459L422.14,40.459L431.25,40.459L440.37,40.459L449.48,40.459L458.59,40.459L467.7,40.459L476.81,40.459L485.93,40.459L495.04,40.459L504.15,40.459L513.26,40.459L522.37,40.459L531.49,40.459L540.6,40.459L549.71,40.459L558.82,40.459L567.93,40.459L577.05,40.459L586.16,40.459L595.27,40.459L604.38,40.459L613.49,40.459L622.61,40.459L631.72,40.459L640.83,40.459L649.94,40.459L659.05,40.459L668.17,40.459L677.28,40.459L686.39,40.459L695.5,40.459L704.61,40.459L713.73,40.459L722.84,40.459L731.95,40.459L741.06,40.459L750.17,40.459L759.29,40.459L768.4,40.459L777.51,40.459L786.62,40.459L795.73,40.459L804.85,40.459L813.96,40.459L823.07,40.459L832.18,40.459L841.29,40.459L850.41,40.459L859.52,40.459L868.63,40.459L877.74,40.459L886.85,40.459L895.97,40.459L905.08,40.459L914.19,40.459L923.3,40.459L932.41,40.459L941.53,40.459L950.64,40.459L959.75,40.459" style="fill:none;stroke:#D73027;stroke-width:0.5" />
<path d="M57.663,40.459L66.775,40.459L75.887,40.459L84.999,40.459L94.111,40.459L103.22,40.459L112.34,40.459L121.45,40.459L130.56,40.459L139.67,40.459L148.78,40.459L157.89,40.459L167.01,40.459L176.12,40.459L185.23,40.459L194.34,40.459L203.45,40.459L212.57,40.459L221.68,40.459L230.79,40.459L239.9,40.459L249.01,40.459L258.13,40.459L267.24,40.459L276.35,40.459L285.46,40.459L294.57,40.459L303.69,40.459L312.8,40.459L321.91,40.459L331.02,40.459L340.13,40.459L349.25,40.459L358.36,40.459L367.47,40.459L376.58,40.459L385.69,40.459L394.81,40.459L403.92,40.459L413.03,40.459L422.14,40.459L431.25,40.459L440.37,40.459L449.48,40.459L458.59,40.459L467.7,40.459L476.81,40.459L485.93,40.459L495.04,40.459L504.15,40.459L513.26,40.459L522.37,40.459L531.49,40.459L540.6,40.459L549.71,40.459L558.82,40.459L567.93,40.459L577.05,40.459L586.16,40.459L595.27,40.459L604.38,40.459L613.49,40.459L622.61,40.459L631.72,40.459L640.83,40.459L649.94,40.459L659.05,40.459L668.17,40.459L677.28,40.459L686.39,40.459L695.5,40.459L704.61,40.459L713.73,40.459L722.84,40.459L731.95,40.459L741.06,40.459L750.17,40.459L759.29,40.459L768.4,40.459L777.51,40.459L786.62,40.459L795.73,40.459L804.85,40.459L813.96,40.459L823.07,40.459L832.18,40.459L841.29,40.459L850.41,40.459L859.52,40.459L868.63,40.459L877.74,40.459L886.85,40.459L895.97,40.459L905.08,40.459L914.19,40.459L923.3,40.459L932.41,40.459L941.53,40.459L950.64,40.459L959.75,40.459" style="fill:none;stroke:#FEE090;stroke-width:0.5" />
<path d="M57.663,40.459L66.775,40.459L75.887,40.459L84.999,40.459L94.111,40.459L103.22,40.459L112.34,40.459L121.45,40.459L130.56,40.459L139.67,40.459L148.78,40.459L157.89,40.459L167.01,40.459L176.12,40.459L185.23,40.459L194.34,40.459L203.45,40.459L212.57,40.459L221.68,40.459L230.79,40.459L239.9,40.459L249.01,40.459L258.13,40.459L267.24,40.459L276.35,40.459L285.46,40.459L294.57,40.459L303.69,40.459L312.8,40.459L321.91,40.459L331.02,40.459L340.13,40.459L349.25,40.459L358.36,40.459L367.47,40.459L376.58,40.459L385.69,40.459L394.81,40.459L403.92,40.459L413.03,40.459L422.14,40.459L431.25,40.459L440.37,40.459L449.48,40.459L458.59,40.459L467.7,40.459L476.81,40.459L485.93,40.459L495.04,40.459L504.15,40.459L513.26,40.459L522.37,40.459L531.49,40.459L540.6,40.459L549.71,40.459L558.82,40.459L567.93,40.459L577.05,40.459L586.16,40.459L595.27,40.459L604.38,40.459L613.49,40.459L622.61,40.459L631.72,40.459L640.83,40.459L649.94,40.459L659.05,40.459L668.17,40.459L677.28,40.459L686.39,40.459L695.5,40.459L704.61,40.459L713.73,40.459L722.84,40.459L731.95,40.459L741.06,40.459L750.17,40.459L759.29,40.459L768.4,40.459L777.51,40.459L786.62,40.459L795.73,40.459L804.85,40.459L813.96,40.459L823.07,40.459L832.18,40.459L841.29,40.459L850.41,40.459L859.52,40.459L868.63,40.459L877.74,40.459L886.85,40.459L895.97,40.459L905.08,40.459L914.19,40.459L923.3,40.459L932.41,40.459L941.53,40.459L950.64,40.459L959.75,40.459" style="fill:none;stroke:#FC8D59;stroke-width:0.5" />
<path d="M940,75.852L960,75.852" style="fill:none;stroke:#4575B4;stroke-width:0.5" />
<text x="855.71" y="-73.364" transform="scale(1, -1)"
	style="font-family:Liberation Serif;font-variant:normal;font-weight:normal;font-style:normal;font-size:12px">current heap size</text>
<path d="M940,65.668L960,65.668" style="fill:none;stroke:#D73027;stroke-width:0.5" />
<text x="868.36" y="-63.181" transform="scale(1, -1)"
	style="font-family:Liberation Serif;font-variant:normal;font-weight:normal;font-style:normal;font-size:12px">total heap size</text>
<path d="M940,55.484L960,55.484" style="fill:none;stroke:#FEE090;stroke-width:0.5" />
<text x="806.04" y="-52.997" transform="scale(1, -1)"
	style="font-family:Liberation Serif;font-variant:normal;font-weight:normal;font-style:normal;font-size:12px">memory allocated from OS</text>
<path d="M940,45.301L960,45.301" style="fill:none;stroke:#FC8D59;stroke-width:0.5" />
<text x="787.26" y="-42.813" transform="scale(1, -1)"
	style="font-family:Liberation Serif;font-variant:normal;font-weight:normal;font-style:normal;font-size:12px">effective memory consumption</text>
</g>
</svg>
