<?xml version="1.0"?>
<!-- Generated by SVGo and Plotinum VG -->
<svg width="6in" height="4in"
	xmlns="http://www.w3.org/2000/svg" 
	xmlns:xlink="http://www.w3.org/1999/xlink">
<g transform="scale(1, -1) translate(0, -360)">
<path d="M0,0L540,0L540,360L0,360Z" style="fill:#FFFFFF" />
<text x="113.16" y="-347.28" transform="scale(1, -1)"
	style="font-family:Times;font-weight:normal;font-style:normal;font-size:12pt">archive/tar memory usage for 100 files, 1.0MB each</text>
<text x="262.05" y="-5.355" transform="scale(1, -1)"
	style="font-family:Times;font-weight:normal;font-style:normal;font-size:12pt">Files in archive</text>
<text x="73.463" y="-19.025" transform="scale(1, -1)"
	style="font-family:Times;font-weight:normal;font-style:normal;font-size:10pt">0</text>
<text x="210.77" y="-19.025" transform="scale(1, -1)"
	style="font-family:Times;font-weight:normal;font-style:normal;font-size:10pt">30</text>
<text x="351.19" y="-19.025" transform="scale(1, -1)"
	style="font-family:Times;font-weight:normal;font-style:normal;font-size:10pt">60</text>
<text x="491.62" y="-19.025" transform="scale(1, -1)"
	style="font-family:Times;font-weight:normal;font-style:normal;font-size:10pt">90</text>
<path d="M76.588,29.625L76.588,39.625" style="fill:none;stroke:#000000;stroke-width:0.625" />
<path d="M217.02,29.625L217.02,39.625" style="fill:none;stroke:#000000;stroke-width:0.625" />
<path d="M357.44,29.625L357.44,39.625" style="fill:none;stroke:#000000;stroke-width:0.625" />
<path d="M497.87,29.625L497.87,39.625" style="fill:none;stroke:#000000;stroke-width:0.625" />
<path d="M123.4,34.625L123.4,39.625" style="fill:none;stroke:#000000;stroke-width:0.625" />
<path d="M170.21,34.625L170.21,39.625" style="fill:none;stroke:#000000;stroke-width:0.625" />
<path d="M263.82,34.625L263.82,39.625" style="fill:none;stroke:#000000;stroke-width:0.625" />
<path d="M310.63,34.625L310.63,39.625" style="fill:none;stroke:#000000;stroke-width:0.625" />
<path d="M404.25,34.625L404.25,39.625" style="fill:none;stroke:#000000;stroke-width:0.625" />
<path d="M451.06,34.625L451.06,39.625" style="fill:none;stroke:#000000;stroke-width:0.625" />
<path d="M76.588,39.625L540,39.625" style="fill:none;stroke:#000000;stroke-width:0.625" />
<g transform="rotate(90)">
<text x="125.32" y="12.72" transform="scale(1, -1)"
	style="font-family:Times;font-weight:normal;font-style:normal;font-size:12pt">Memory usage (log10)</text>
</g>
<text x="18.075" y="-68.864" transform="scale(1, -1)"
	style="font-family:Times;font-weight:normal;font-style:normal;font-size:10pt">600MB</text>
<text x="18.075" y="-168.37" transform="scale(1, -1)"
	style="font-family:Times;font-weight:normal;font-style:normal;font-size:10pt">700MB</text>
<text x="18.075" y="-254.56" transform="scale(1, -1)"
	style="font-family:Times;font-weight:normal;font-style:normal;font-size:10pt">800MB</text>
<text x="18.075" y="-330.59" transform="scale(1, -1)"
	style="font-family:Times;font-weight:normal;font-style:normal;font-size:10pt">900MB</text>
<path d="M59.4,73.689L69.4,73.689" style="fill:none;stroke:#000000;stroke-width:0.625" />
<path d="M59.4,173.19L69.4,173.19" style="fill:none;stroke:#000000;stroke-width:0.625" />
<path d="M59.4,259.39L69.4,259.39" style="fill:none;stroke:#000000;stroke-width:0.625" />
<path d="M59.4,335.41L69.4,335.41" style="fill:none;stroke:#000000;stroke-width:0.625" />
<path d="M69.4,46.188L69.4,341.93" style="fill:none;stroke:#000000;stroke-width:0.625" />
<path d="M76.588,46.188L76.588,341.93" style="fill:none;stroke:#808080;stroke-width:0.3125" />
<path d="M217.02,46.188L217.02,341.93" style="fill:none;stroke:#808080;stroke-width:0.3125" />
<path d="M357.44,46.188L357.44,341.93" style="fill:none;stroke:#808080;stroke-width:0.3125" />
<path d="M497.87,46.188L497.87,341.93" style="fill:none;stroke:#808080;stroke-width:0.3125" />
<path d="M76.588,-1082.9L540,-1082.9" style="fill:none;stroke:#808080;stroke-width:0.3125" />
<path d="M76.588,-635.45L540,-635.45" style="fill:none;stroke:#808080;stroke-width:0.3125" />
<path d="M76.588,-373.73L540,-373.73" style="fill:none;stroke:#808080;stroke-width:0.3125" />
<path d="M76.588,-188.03L540,-188.03" style="fill:none;stroke:#808080;stroke-width:0.3125" />
<path d="M76.588,-43.997L540,-43.997" style="fill:none;stroke:#808080;stroke-width:0.3125" />
<path d="M76.588,73.689L540,73.689" style="fill:none;stroke:#808080;stroke-width:0.3125" />
<path d="M76.588,173.19L540,173.19" style="fill:none;stroke:#808080;stroke-width:0.3125" />
<path d="M76.588,259.39L540,259.39" style="fill:none;stroke:#808080;stroke-width:0.3125" />
<path d="M76.588,335.41L540,335.41" style="fill:none;stroke:#808080;stroke-width:0.3125" />
<path d="M76.588,403.42L540,403.42" style="fill:none;stroke:#808080;stroke-width:0.3125" />
<path d="M76.588,850.84L540,850.84" style="fill:none;stroke:#808080;stroke-width:0.3125" />
<path d="M76.588,1112.6L540,1112.6" style="fill:none;stroke:#808080;stroke-width:0.3125" />
<path d="M76.588,1298.3L540,1298.3" style="fill:none;stroke:#808080;stroke-width:0.3125" />
<path d="M76.588,1442.3L540,1442.3" style="fill:none;stroke:#808080;stroke-width:0.3125" />
<path d="M76.588,1560L540,1560" style="fill:none;stroke:#808080;stroke-width:0.3125" />
<path d="M76.588,1659.5L540,1659.5" style="fill:none;stroke:#808080;stroke-width:0.3125" />
<path d="M76.588,1745.7L540,1745.7" style="fill:none;stroke:#808080;stroke-width:0.3125" />
<path d="M76.588,1821.7L540,1821.7" style="fill:none;stroke:#808080;stroke-width:0.3125" />
<path d="M76.588,1889.7L540,1889.7" style="fill:none;stroke:#808080;stroke-width:0.3125" />
<path d="M76.588,46.188L81.268,48.438L85.949,54.015L90.63,54.016L95.311,54.017L99.992,65.036L104.67,65.037L109.35,65.038L114.03,65.039L118.72,65.04L123.4,87.572L128.08,87.573L132.76,87.574L137.44,87.575L142.12,87.576L146.8,87.577L151.48,87.579L156.16,87.58L160.84,87.581L165.53,87.582L170.21,87.583L174.89,131.39L179.57,131.39L184.25,131.39L188.93,131.39L193.61,131.39L198.29,131.4L202.97,131.4L207.65,131.4L212.33,131.4L217.02,131.4L221.7,131.4L226.38,131.4L231.06,131.4L235.74,131.4L240.42,131.4L245.1,131.41L249.78,131.41L254.46,131.41L259.14,131.41L263.82,131.41L268.51,131.41L273.19,131.41L277.87,211.86L282.55,211.84L287.23,211.84L291.91,211.84L296.59,211.84L301.27,211.84L305.95,211.84L310.63,211.84L315.32,211.84L320,211.84L324.68,211.85L329.36,211.85L334.04,211.85L338.72,211.85L343.4,211.85L348.08,211.85L352.76,211.84L357.44,211.84L362.12,211.84L366.81,211.84L371.49,211.84L376.17,211.84L380.85,211.84L385.53,209.36L390.21,209.36L394.89,209.36L399.57,209.37L404.25,209.37L408.93,209.37L413.61,209.37L418.3,209.37L422.98,204.93L427.66,204.94L432.34,204.94L437.02,204.94L441.7,204.93L446.38,204.93L451.06,204.93L455.74,204.93L460.42,204.94L465.11,204.94L469.79,204.94L474.47,204.94L479.15,204.94L483.83,83.396L488.51,83.397L493.19,83.337L497.87,83.338L502.55,83.339L507.23,83.341L511.91,83.342L516.6,83.343L521.28,83.327L525.96,83.329L530.64,83.33L535.32,83.331L540,83.332" style="fill:none;stroke:#4575B4;stroke-width:0.625" />
<path d="M76.588,298.82L81.268,298.82L85.949,298.82L90.63,298.82L95.311,298.82L99.992,298.82L104.67,298.82L109.35,298.82L114.03,298.82L118.72,298.82L123.4,298.82L128.08,298.82L132.76,298.82L137.44,298.82L142.12,298.82L146.8,298.82L151.48,298.82L156.16,298.82L160.84,298.82L165.53,298.82L170.21,298.82L174.89,298.82L179.57,298.82L184.25,298.82L188.93,298.82L193.61,298.82L198.29,298.82L202.97,298.82L207.65,298.82L212.33,298.82L217.02,298.82L221.7,298.82L226.38,298.82L231.06,298.82L235.74,298.82L240.42,298.82L245.1,298.82L249.78,298.82L254.46,298.82L259.14,298.82L263.82,298.82L268.51,298.82L273.19,298.82L277.87,298.82L282.55,298.82L287.23,298.82L291.91,298.82L296.59,298.82L301.27,298.82L305.95,298.82L310.63,298.82L315.32,298.82L320,298.82L324.68,298.82L329.36,298.82L334.04,298.82L338.72,298.82L343.4,298.82L348.08,298.82L352.76,298.82L357.44,298.82L362.12,298.82L366.81,298.82L371.49,298.82L376.17,298.82L380.85,298.82L385.53,298.82L390.21,298.82L394.89,298.82L399.57,298.82L404.25,298.82L408.93,298.82L413.61,298.82L418.3,298.82L422.98,298.82L427.66,298.82L432.34,298.82L437.02,298.82L441.7,298.82L446.38,298.82L451.06,298.82L455.74,298.82L460.42,298.82L465.11,298.82L469.79,298.82L474.47,298.82L479.15,298.82L483.83,298.82L488.51,298.82L493.19,298.82L497.87,298.82L502.55,298.82L507.23,298.82L511.91,298.82L516.6,298.82L521.28,298.82L525.96,298.82L530.64,298.82L535.32,298.82L540,298.82" style="fill:none;stroke:#D73027;stroke-width:0.625" />
<path d="M76.588,341.93L81.268,341.93L85.949,341.93L90.63,341.93L95.311,341.93L99.992,341.93L104.67,341.93L109.35,341.93L114.03,341.93L118.72,341.93L123.4,341.93L128.08,341.93L132.76,341.93L137.44,341.93L142.12,341.93L146.8,341.93L151.48,341.93L156.16,341.93L160.84,341.93L165.53,341.93L170.21,341.93L174.89,341.93L179.57,341.93L184.25,341.93L188.93,341.93L193.61,341.93L198.29,341.93L202.97,341.93L207.65,341.93L212.33,341.93L217.02,341.93L221.7,341.93L226.38,341.93L231.06,341.93L235.74,341.93L240.42,341.93L245.1,341.93L249.78,341.93L254.46,341.93L259.14,341.93L263.82,341.93L268.51,341.93L273.19,341.93L277.87,341.91L282.55,341.91L287.23,341.91L291.91,341.91L296.59,341.91L301.27,341.91L305.95,341.91L310.63,341.91L315.32,341.91L320,341.91L324.68,341.91L329.36,341.91L334.04,341.91L338.72,341.91L343.4,341.91L348.08,341.91L352.76,341.91L357.44,341.91L362.12,341.91L366.81,341.91L371.49,341.91L376.17,341.91L380.85,341.91L385.53,341.91L390.21,341.91L394.89,341.91L399.57,341.91L404.25,341.91L408.93,341.91L413.61,341.91L418.3,341.91L422.98,341.91L427.66,341.91L432.34,341.91L437.02,341.91L441.7,341.91L446.38,341.91L451.06,341.91L455.74,341.91L460.42,341.91L465.11,341.91L469.79,341.91L474.47,341.91L479.15,341.91L483.83,341.91L488.51,341.91L493.19,341.91L497.87,341.91L502.55,341.91L507.23,341.91L511.91,341.91L516.6,341.91L521.28,341.91L525.96,341.91L530.64,341.91L535.32,341.91L540,341.91" style="fill:none;stroke:#FEE090;stroke-width:0.625" />
<path d="M76.588,341.93L81.268,341.93L85.949,341.93L90.63,341.93L95.311,341.93L99.992,341.93L104.67,341.93L109.35,341.93L114.03,341.93L118.72,341.93L123.4,341.93L128.08,341.93L132.76,341.93L137.44,341.93L142.12,341.93L146.8,341.93L151.48,341.93L156.16,341.93L160.84,341.93L165.53,341.93L170.21,341.93L174.89,341.93L179.57,341.93L184.25,341.93L188.93,341.93L193.61,341.93L198.29,341.93L202.97,341.93L207.65,341.93L212.33,341.93L217.02,341.93L221.7,341.93L226.38,341.93L231.06,341.93L235.74,341.93L240.42,341.93L245.1,341.93L249.78,341.93L254.46,341.93L259.14,341.93L263.82,341.93L268.51,341.93L273.19,341.93L277.87,341.91L282.55,341.91L287.23,341.91L291.91,341.91L296.59,341.91L301.27,341.91L305.95,341.91L310.63,341.91L315.32,341.91L320,341.91L324.68,341.91L329.36,341.91L334.04,341.91L338.72,341.91L343.4,341.91L348.08,341.91L352.76,341.91L357.44,341.91L362.12,341.91L366.81,341.91L371.49,341.91L376.17,341.91L380.85,341.91L385.53,341.91L390.21,341.91L394.89,341.91L399.57,341.91L404.25,341.91L408.93,341.91L413.61,341.91L418.3,341.91L422.98,341.91L427.66,341.91L432.34,341.91L437.02,341.91L441.7,341.91L446.38,341.91L451.06,341.91L455.74,341.91L460.42,341.91L465.11,341.91L469.79,341.91L474.47,341.91L479.15,341.91L483.83,341.91L488.51,341.91L493.19,341.91L497.87,341.91L502.55,341.91L507.23,341.91L511.91,341.91L516.6,341.91L521.28,341.91L525.96,341.91L530.64,341.91L535.32,341.91L540,341.91" style="fill:none;stroke:#FC8D59;stroke-width:0.625" />
<path d="M515,94.698L540,94.698" style="fill:none;stroke:#4575B4;stroke-width:0.625" />
<text x="409.62" y="-88.908" transform="scale(1, -1)"
	style="font-family:Times;font-weight:normal;font-style:normal;font-size:12pt">current heap size</text>
<path d="M515,80.838L540,80.838" style="fill:none;stroke:#D73027;stroke-width:0.625" />
<text x="425.44" y="-75.047" transform="scale(1, -1)"
	style="font-family:Times;font-weight:normal;font-style:normal;font-size:12pt">total heap size</text>
<path d="M515,66.977L540,66.977" style="fill:none;stroke:#FEE090;stroke-width:0.625" />
<text x="347.52" y="-61.187" transform="scale(1, -1)"
	style="font-family:Times;font-weight:normal;font-style:normal;font-size:12pt">memory allocated from OS</text>
<path d="M515,53.117L540,53.117" style="fill:none;stroke:#FC8D59;stroke-width:0.625" />
<text x="323.78" y="-47.327" transform="scale(1, -1)"
	style="font-family:Times;font-weight:normal;font-style:normal;font-size:12pt">effective memory consumption</text>
</g>
</svg>
