<?xml version="1.0"?>
<!-- Generated by SVGo and Plotinum VG -->
<svg width="13.333in" height="10in"
	xmlns="http://www.w3.org/2000/svg"
	xmlns:xlink="http://www.w3.org/1999/xlink">
<g transform="scale(1, -1) translate(0, -900)">
<path d="M0,0L1200,0L1200,900L0,900Z" style="fill:#FFFFFF" />
<text x="441.3" y="-885.56" transform="scale(1, -1)"
	style="font-family:Times;font-weight:normal;font-style:normal;font-size:12pt">archive/tar memory usage for 100 files, 1.0 MB each</text>
<text x="589.35" y="-4.8267" transform="scale(1, -1)"
	style="font-family:Times;font-weight:normal;font-style:normal;font-size:12pt">Files in archive</text>
<text x="68.055" y="-19.502" transform="scale(1, -1)"
	style="font-family:Times;font-weight:normal;font-style:normal;font-size:10pt">0</text>
<text x="407" y="-19.502" transform="scale(1, -1)"
	style="font-family:Times;font-weight:normal;font-style:normal;font-size:10pt">30</text>
<text x="749.06" y="-19.502" transform="scale(1, -1)"
	style="font-family:Times;font-weight:normal;font-style:normal;font-size:10pt">60</text>
<text x="1091.1" y="-19.502" transform="scale(1, -1)"
	style="font-family:Times;font-weight:normal;font-style:normal;font-size:10pt">90</text>
<path d="M71.18,31.538L71.18,41.538" style="fill:none;stroke:#000000;stroke-width:0.625" />
<path d="M413.25,31.538L413.25,41.538" style="fill:none;stroke:#000000;stroke-width:0.625" />
<path d="M755.31,31.538L755.31,41.538" style="fill:none;stroke:#000000;stroke-width:0.625" />
<path d="M1097.4,31.538L1097.4,41.538" style="fill:none;stroke:#000000;stroke-width:0.625" />
<path d="M185.2,36.538L185.2,41.538" style="fill:none;stroke:#000000;stroke-width:0.625" />
<path d="M299.22,36.538L299.22,41.538" style="fill:none;stroke:#000000;stroke-width:0.625" />
<path d="M527.27,36.538L527.27,41.538" style="fill:none;stroke:#000000;stroke-width:0.625" />
<path d="M641.29,36.538L641.29,41.538" style="fill:none;stroke:#000000;stroke-width:0.625" />
<path d="M869.34,36.538L869.34,41.538" style="fill:none;stroke:#000000;stroke-width:0.625" />
<path d="M983.36,36.538L983.36,41.538" style="fill:none;stroke:#000000;stroke-width:0.625" />
<path d="M71.18,41.538L1200,41.538" style="fill:none;stroke:#000000;stroke-width:0.625" />
<g transform="rotate(90)">
<text x="419.64" y="14.443" transform="scale(1, -1)"
	style="font-family:Times;font-weight:normal;font-style:normal;font-size:12pt">Memory usage</text>
</g>
<text x="36.281" y="-42.198" transform="scale(1, -1)"
	style="font-family:Times;font-weight:normal;font-style:normal;font-size:10pt">0B</text>
<text x="19.27" y="-313.02" transform="scale(1, -1)"
	style="font-family:Times;font-weight:normal;font-style:normal;font-size:10pt">6.0EB</text>
<text x="22.395" y="-583.84" transform="scale(1, -1)"
	style="font-family:Times;font-weight:normal;font-style:normal;font-size:10pt">12EB</text>
<text x="22.395" y="-854.66" transform="scale(1, -1)"
	style="font-family:Times;font-weight:normal;font-style:normal;font-size:10pt">18EB</text>
<text x="19.27" y="-132.47" transform="scale(1, -1)"
	style="font-family:Times;font-weight:normal;font-style:normal;font-size:10pt">2.0EB</text>
<text x="19.27" y="-222.75" transform="scale(1, -1)"
	style="font-family:Times;font-weight:normal;font-style:normal;font-size:10pt">4.0EB</text>
<text x="19.27" y="-403.29" transform="scale(1, -1)"
	style="font-family:Times;font-weight:normal;font-style:normal;font-size:10pt">8.0EB</text>
<text x="22.395" y="-493.57" transform="scale(1, -1)"
	style="font-family:Times;font-weight:normal;font-style:normal;font-size:10pt">10EB</text>
<text x="22.395" y="-674.12" transform="scale(1, -1)"
	style="font-family:Times;font-weight:normal;font-style:normal;font-size:10pt">14EB</text>
<text x="22.395" y="-764.39" transform="scale(1, -1)"
	style="font-family:Times;font-weight:normal;font-style:normal;font-size:10pt">16EB</text>
<path d="M53.993,48.101L63.993,48.101" style="fill:none;stroke:#000000;stroke-width:0.625" />
<path d="M53.993,318.92L63.993,318.92" style="fill:none;stroke:#000000;stroke-width:0.625" />
<path d="M53.993,589.74L63.993,589.74" style="fill:none;stroke:#000000;stroke-width:0.625" />
<path d="M53.993,860.57L63.993,860.57" style="fill:none;stroke:#000000;stroke-width:0.625" />
<path d="M53.993,138.37L63.993,138.37" style="fill:none;stroke:#000000;stroke-width:0.625" />
<path d="M53.993,228.65L63.993,228.65" style="fill:none;stroke:#000000;stroke-width:0.625" />
<path d="M53.993,409.2L63.993,409.2" style="fill:none;stroke:#000000;stroke-width:0.625" />
<path d="M53.993,499.47L63.993,499.47" style="fill:none;stroke:#000000;stroke-width:0.625" />
<path d="M53.993,680.02L63.993,680.02" style="fill:none;stroke:#000000;stroke-width:0.625" />
<path d="M53.993,770.29L63.993,770.29" style="fill:none;stroke:#000000;stroke-width:0.625" />
<path d="M63.993,48.101L63.993,880.73" style="fill:none;stroke:#000000;stroke-width:0.625" />
<path d="M71.18,48.101L71.18,880.73" style="fill:none;stroke:#808080;stroke-width:0.3125" />
<path d="M413.25,48.101L413.25,880.73" style="fill:none;stroke:#808080;stroke-width:0.3125" />
<path d="M755.31,48.101L755.31,880.73" style="fill:none;stroke:#808080;stroke-width:0.3125" />
<path d="M1097.4,48.101L1097.4,880.73" style="fill:none;stroke:#808080;stroke-width:0.3125" />
<path d="M71.18,48.101L1200,48.101" style="fill:none;stroke:#808080;stroke-width:0.3125" />
<path d="M71.18,318.92L1200,318.92" style="fill:none;stroke:#808080;stroke-width:0.3125" />
<path d="M71.18,589.74L1200,589.74" style="fill:none;stroke:#808080;stroke-width:0.3125" />
<path d="M71.18,860.57L1200,860.57" style="fill:none;stroke:#808080;stroke-width:0.3125" />
<path d="M71.18,138.37L1200,138.37" style="fill:none;stroke:#808080;stroke-width:0.3125" />
<path d="M71.18,228.65L1200,228.65" style="fill:none;stroke:#808080;stroke-width:0.3125" />
<path d="M71.18,409.2L1200,409.2" style="fill:none;stroke:#808080;stroke-width:0.3125" />
<path d="M71.18,499.47L1200,499.47" style="fill:none;stroke:#808080;stroke-width:0.3125" />
<path d="M71.18,680.02L1200,680.02" style="fill:none;stroke:#808080;stroke-width:0.3125" />
<path d="M71.18,770.29L1200,770.29" style="fill:none;stroke:#808080;stroke-width:0.3125" />
<path d="M71.18,880.73L82.583,880.73L93.985,880.73L105.39,880.73L116.79,880.73L128.19,880.73L139.59,880.73L151,880.73L162.4,880.73L173.8,880.73L185.2,880.73L196.6,880.73L208.01,880.73L219.41,880.73L230.81,880.73L242.21,880.73L253.62,880.73L265.02,880.73L276.42,880.73L287.82,880.73L299.22,880.73L310.63,880.73L322.03,880.73L333.43,880.73L344.83,880.73L356.24,880.73L367.64,880.73L379.04,880.73L390.44,880.73L401.84,880.73L413.25,880.73L424.65,880.73L436.05,880.73L447.45,880.73L458.86,880.73L470.26,880.73L481.66,880.73L493.06,880.73L504.46,880.73L515.87,880.73L527.27,880.73L538.67,880.73L550.07,880.73L561.48,880.73L572.88,880.73L584.28,880.73L595.68,880.73L607.08,880.73L618.49,880.73L629.89,880.73L641.29,880.73L652.69,880.73L664.1,880.73L675.5,880.73L686.9,880.73L698.3,880.73L709.7,880.73L721.11,880.73L732.51,880.73L743.91,880.73L755.31,880.73L766.72,880.73L778.12,880.73L789.52,880.73L800.92,880.73L812.32,880.73L823.73,880.73L835.13,880.73L846.53,880.73L857.93,880.73L869.34,880.73L880.74,880.73L892.14,880.73L903.54,880.73L914.94,880.73L926.35,880.73L937.75,880.73L949.15,880.73L960.55,880.73L971.96,880.73L983.36,880.73L994.76,880.73L1006.2,880.73L1017.6,880.73L1029,880.73L1040.4,880.73L1051.8,880.73L1063.2,880.73L1074.6,880.73L1086,880.73L1097.4,880.73L1108.8,880.73L1120.2,880.73L1131.6,880.73L1143,880.73L1154.4,880.73L1165.8,880.73L1177.2,880.73L1188.6,880.73L1200,880.73" style="fill:none;stroke:#4575B4;stroke-width:0.625" />
<path d="M71.18,48.101L82.583,48.101L93.985,48.101L105.39,48.101L116.79,48.101L128.19,48.101L139.59,48.101L151,48.101L162.4,48.101L173.8,48.101L185.2,48.101L196.6,48.101L208.01,48.101L219.41,48.101L230.81,48.101L242.21,48.101L253.62,48.101L265.02,48.101L276.42,48.101L287.82,48.101L299.22,48.101L310.63,48.101L322.03,48.101L333.43,48.101L344.83,48.101L356.24,48.101L367.64,48.101L379.04,48.101L390.44,48.101L401.84,48.101L413.25,48.101L424.65,48.101L436.05,48.101L447.45,48.101L458.86,48.101L470.26,48.101L481.66,48.101L493.06,48.101L504.46,48.101L515.87,48.101L527.27,48.101L538.67,48.101L550.07,48.101L561.48,880.73L572.88,48.101L584.28,48.101L595.68,48.101L607.08,48.101L618.49,48.101L629.89,48.101L641.29,48.101L652.69,48.101L664.1,48.101L675.5,48.101L686.9,48.101L698.3,48.101L709.7,48.101L721.11,48.101L732.51,48.101L743.91,48.101L755.31,48.101L766.72,48.101L778.12,48.101L789.52,48.101L800.92,48.101L812.32,48.101L823.73,48.101L835.13,48.101L846.53,48.101L857.93,48.101L869.34,48.101L880.74,48.101L892.14,48.101L903.54,48.101L914.94,48.101L926.35,48.101L937.75,48.101L949.15,48.101L960.55,48.101L971.96,48.101L983.36,48.101L994.76,48.101L1006.2,48.101L1017.6,48.101L1029,48.101L1040.4,48.101L1051.8,48.101L1063.2,48.101L1074.6,48.101L1086,48.101L1097.4,48.101L1108.8,48.101L1120.2,48.101L1131.6,48.101L1143,48.101L1154.4,48.101L1165.8,48.101L1177.2,48.101L1188.6,48.101L1200,48.101" style="fill:none;stroke:#D73027;stroke-width:0.625" />
<path d="M71.18,48.101L82.583,48.101L93.985,48.101L105.39,48.101L116.79,48.101L128.19,48.101L139.59,48.101L151,48.101L162.4,48.101L173.8,48.101L185.2,48.101L196.6,48.101L208.01,48.101L219.41,48.101L230.81,48.101L242.21,48.101L253.62,48.101L265.02,48.101L276.42,48.101L287.82,48.101L299.22,48.101L310.63,48.101L322.03,48.101L333.43,48.101L344.83,48.101L356.24,48.101L367.64,48.101L379.04,48.101L390.44,48.101L401.84,48.101L413.25,48.101L424.65,48.101L436.05,48.101L447.45,48.101L458.86,48.101L470.26,48.101L481.66,48.101L493.06,48.101L504.46,48.101L515.87,48.101L527.27,48.101L538.67,48.101L550.07,48.101L561.48,48.101L572.88,48.101L584.28,48.101L595.68,48.101L607.08,48.101L618.49,48.101L629.89,48.101L641.29,48.101L652.69,48.101L664.1,48.101L675.5,48.101L686.9,48.101L698.3,48.101L709.7,48.101L721.11,48.101L732.51,48.101L743.91,48.101L755.31,48.101L766.72,48.101L778.12,48.101L789.52,48.101L800.92,48.101L812.32,48.101L823.73,48.101L835.13,48.101L846.53,48.101L857.93,48.101L869.34,48.101L880.74,48.101L892.14,48.101L903.54,48.101L914.94,48.101L926.35,48.101L937.75,48.101L949.15,48.101L960.55,48.101L971.96,48.101L983.36,48.101L994.76,48.101L1006.2,48.101L1017.6,48.101L1029,48.101L1040.4,48.101L1051.8,48.101L1063.2,48.101L1074.6,48.101L1086,48.101L1097.4,48.101L1108.8,48.101L1120.2,48.101L1131.6,48.101L1143,48.101L1154.4,48.101L1165.8,48.101L1177.2,48.101L1188.6,48.101L1200,48.101" style="fill:none;stroke:#FEE090;stroke-width:0.625" />
<path d="M71.18,48.101L82.583,48.101L93.985,48.101L105.39,48.101L116.79,48.101L128.19,48.101L139.59,48.101L151,48.101L162.4,48.101L173.8,48.101L185.2,48.101L196.6,48.101L208.01,48.101L219.41,48.101L230.81,48.101L242.21,48.101L253.62,48.101L265.02,48.101L276.42,48.101L287.82,48.101L299.22,48.101L310.63,48.101L322.03,48.101L333.43,48.101L344.83,48.101L356.24,48.101L367.64,48.101L379.04,48.101L390.44,48.101L401.84,48.101L413.25,48.101L424.65,48.101L436.05,48.101L447.45,48.101L458.86,48.101L470.26,48.101L481.66,48.101L493.06,48.101L504.46,48.101L515.87,48.101L527.27,48.101L538.67,48.101L550.07,48.101L561.48,48.101L572.88,48.101L584.28,48.101L595.68,48.101L607.08,48.101L618.49,48.101L629.89,48.101L641.29,48.101L652.69,48.101L664.1,48.101L675.5,48.101L686.9,48.101L698.3,48.101L709.7,48.101L721.11,48.101L732.51,48.101L743.91,48.101L755.31,48.101L766.72,48.101L778.12,48.101L789.52,48.101L800.92,48.101L812.32,48.101L823.73,48.101L835.13,48.101L846.53,48.101L857.93,48.101L869.34,48.101L880.74,48.101L892.14,48.101L903.54,48.101L914.94,48.101L926.35,48.101L937.75,48.101L949.15,48.101L960.55,48.101L971.96,48.101L983.36,48.101L994.76,48.101L1006.2,48.101L1017.6,48.101L1029,48.101L1040.4,48.101L1051.8,48.101L1063.2,48.101L1074.6,48.101L1086,48.101L1097.4,48.101L1108.8,48.101L1120.2,48.101L1131.6,48.101L1143,48.101L1154.4,48.101L1165.8,48.101L1177.2,48.101L1188.6,48.101L1200,48.101" style="fill:none;stroke:#FC8D59;stroke-width:0.625" />
<path d="M1175,99.626L1200,99.626" style="fill:none;stroke:#4575B4;stroke-width:0.625" />
<text x="1069.6" y="-92.544" transform="scale(1, -1)"
	style="font-family:Times;font-weight:normal;font-style:normal;font-size:12pt">current heap size</text>
<path d="M1175,84.905L1200,84.905" style="fill:none;stroke:#D73027;stroke-width:0.625" />
<text x="1085.5" y="-77.822" transform="scale(1, -1)"
	style="font-family:Times;font-weight:normal;font-style:normal;font-size:12pt">total heap size</text>
<path d="M1175,70.183L1200,70.183" style="fill:none;stroke:#FEE090;stroke-width:0.625" />
<text x="1007.5" y="-63.101" transform="scale(1, -1)"
	style="font-family:Times;font-weight:normal;font-style:normal;font-size:12pt">memory allocated from OS</text>
<path d="M1175,55.461L1200,55.461" style="fill:none;stroke:#FC8D59;stroke-width:0.625" />
<text x="984.08" y="-48.379" transform="scale(1, -1)"
	style="font-family:Times;font-weight:normal;font-style:normal;font-size:12pt">effective memory consumption</text>
</g>
</svg>
