<?xml version="1.0"?>
<!-- Generated by SVGo and Plotinum VG -->
<svg width="6in" height="4in"
	xmlns="http://www.w3.org/2000/svg" 
	xmlns:xlink="http://www.w3.org/1999/xlink">
<g transform="scale(1, -1) translate(0, -360)">
<path d="M0,0L540,0L540,360L0,360Z" style="fill:#FFFFFF" />
<text x="113.16" y="-347.28" transform="scale(1, -1)"
	style="font-family:Times;font-weight:normal;font-style:normal;font-size:12pt">archive/tar memory usage for 100 files, 1.0MB each</text>
<text x="262.05" y="-5.355" transform="scale(1, -1)"
	style="font-family:Times;font-weight:normal;font-style:normal;font-size:12pt">Files in archive</text>
<text x="73.463" y="-19.025" transform="scale(1, -1)"
	style="font-family:Times;font-weight:normal;font-style:normal;font-size:10pt">0</text>
<text x="210.77" y="-19.025" transform="scale(1, -1)"
	style="font-family:Times;font-weight:normal;font-style:normal;font-size:10pt">30</text>
<text x="351.19" y="-19.025" transform="scale(1, -1)"
	style="font-family:Times;font-weight:normal;font-style:normal;font-size:10pt">60</text>
<text x="491.62" y="-19.025" transform="scale(1, -1)"
	style="font-family:Times;font-weight:normal;font-style:normal;font-size:10pt">90</text>
<path d="M76.588,29.625L76.588,39.625" style="fill:none;stroke:#000000;stroke-width:0.625" />
<path d="M217.02,29.625L217.02,39.625" style="fill:none;stroke:#000000;stroke-width:0.625" />
<path d="M357.44,29.625L357.44,39.625" style="fill:none;stroke:#000000;stroke-width:0.625" />
<path d="M497.87,29.625L497.87,39.625" style="fill:none;stroke:#000000;stroke-width:0.625" />
<path d="M123.4,34.625L123.4,39.625" style="fill:none;stroke:#000000;stroke-width:0.625" />
<path d="M170.21,34.625L170.21,39.625" style="fill:none;stroke:#000000;stroke-width:0.625" />
<path d="M263.82,34.625L263.82,39.625" style="fill:none;stroke:#000000;stroke-width:0.625" />
<path d="M310.63,34.625L310.63,39.625" style="fill:none;stroke:#000000;stroke-width:0.625" />
<path d="M404.25,34.625L404.25,39.625" style="fill:none;stroke:#000000;stroke-width:0.625" />
<path d="M451.06,34.625L451.06,39.625" style="fill:none;stroke:#000000;stroke-width:0.625" />
<path d="M76.588,39.625L540,39.625" style="fill:none;stroke:#000000;stroke-width:0.625" />
<g transform="rotate(90)">
<text x="125.32" y="12.72" transform="scale(1, -1)"
	style="font-family:Times;font-weight:normal;font-style:normal;font-size:12pt">Memory usage (log10)</text>
</g>
<text x="18.075" y="-69.398" transform="scale(1, -1)"
	style="font-family:Times;font-weight:normal;font-style:normal;font-size:10pt">600MB</text>
<text x="18.075" y="-168.7" transform="scale(1, -1)"
	style="font-family:Times;font-weight:normal;font-style:normal;font-size:10pt">700MB</text>
<text x="18.075" y="-254.72" transform="scale(1, -1)"
	style="font-family:Times;font-weight:normal;font-style:normal;font-size:10pt">800MB</text>
<text x="18.075" y="-330.6" transform="scale(1, -1)"
	style="font-family:Times;font-weight:normal;font-style:normal;font-size:10pt">900MB</text>
<path d="M59.4,74.223L69.4,74.223" style="fill:none;stroke:#000000;stroke-width:0.625" />
<path d="M59.4,173.53L69.4,173.53" style="fill:none;stroke:#000000;stroke-width:0.625" />
<path d="M59.4,259.55L69.4,259.55" style="fill:none;stroke:#000000;stroke-width:0.625" />
<path d="M59.4,335.43L69.4,335.43" style="fill:none;stroke:#000000;stroke-width:0.625" />
<path d="M69.4,46.188L69.4,341.93" style="fill:none;stroke:#000000;stroke-width:0.625" />
<path d="M76.588,46.188L76.588,341.93" style="fill:none;stroke:#808080;stroke-width:0.3125" />
<path d="M217.02,46.188L217.02,341.93" style="fill:none;stroke:#808080;stroke-width:0.3125" />
<path d="M357.44,46.188L357.44,341.93" style="fill:none;stroke:#808080;stroke-width:0.3125" />
<path d="M497.87,46.188L497.87,341.93" style="fill:none;stroke:#808080;stroke-width:0.3125" />
<path d="M76.588,-1080L540,-1080" style="fill:none;stroke:#808080;stroke-width:0.3125" />
<path d="M76.588,-633.51L540,-633.51" style="fill:none;stroke:#808080;stroke-width:0.3125" />
<path d="M76.588,-372.31L540,-372.31" style="fill:none;stroke:#808080;stroke-width:0.3125" />
<path d="M76.588,-186.98L540,-186.98" style="fill:none;stroke:#808080;stroke-width:0.3125" />
<path d="M76.588,-43.23L540,-43.23" style="fill:none;stroke:#808080;stroke-width:0.3125" />
<path d="M76.588,74.223L540,74.223" style="fill:none;stroke:#808080;stroke-width:0.3125" />
<path d="M76.588,173.53L540,173.53" style="fill:none;stroke:#808080;stroke-width:0.3125" />
<path d="M76.588,259.55L540,259.55" style="fill:none;stroke:#808080;stroke-width:0.3125" />
<path d="M76.588,335.43L540,335.43" style="fill:none;stroke:#808080;stroke-width:0.3125" />
<path d="M76.588,403.3L540,403.3" style="fill:none;stroke:#808080;stroke-width:0.3125" />
<path d="M76.588,849.83L540,849.83" style="fill:none;stroke:#808080;stroke-width:0.3125" />
<path d="M76.588,1111L540,1111" style="fill:none;stroke:#808080;stroke-width:0.3125" />
<path d="M76.588,1296.4L540,1296.4" style="fill:none;stroke:#808080;stroke-width:0.3125" />
<path d="M76.588,1440.1L540,1440.1" style="fill:none;stroke:#808080;stroke-width:0.3125" />
<path d="M76.588,1557.6L540,1557.6" style="fill:none;stroke:#808080;stroke-width:0.3125" />
<path d="M76.588,1656.9L540,1656.9" style="fill:none;stroke:#808080;stroke-width:0.3125" />
<path d="M76.588,1742.9L540,1742.9" style="fill:none;stroke:#808080;stroke-width:0.3125" />
<path d="M76.588,1818.8L540,1818.8" style="fill:none;stroke:#808080;stroke-width:0.3125" />
<path d="M76.588,1886.6L540,1886.6" style="fill:none;stroke:#808080;stroke-width:0.3125" />
<path d="M76.588,46.188L81.268,48.436L85.949,54.006L90.63,54.007L95.311,54.008L99.992,65.015L104.67,65.016L109.35,65.017L114.03,65.018L118.72,65.02L123.4,87.526L128.08,87.527L132.76,87.528L137.44,87.529L142.12,87.53L146.8,87.532L151.48,87.533L156.16,87.534L160.84,87.535L165.53,87.536L170.21,87.537L174.89,131.29L179.57,131.29L184.25,131.3L188.93,131.3L193.61,131.3L198.29,131.3L202.97,131.3L207.65,131.3L212.33,131.3L217.02,131.3L221.7,131.3L226.38,131.3L231.06,131.31L235.74,131.31L240.42,131.31L245.1,131.31L249.78,131.31L254.46,131.31L259.14,131.31L263.82,131.31L268.51,131.31L273.19,131.32L277.87,211.67L282.55,211.64L287.23,211.64L291.91,211.64L296.59,211.64L301.27,211.64L305.95,211.65L310.63,211.65L315.32,211.65L320,211.65L324.68,211.65L329.36,211.65L334.04,211.65L338.72,211.65L343.4,211.65L348.08,211.65L352.76,211.64L357.44,211.64L362.12,211.64L366.81,211.64L371.49,211.64L376.17,211.65L380.85,211.65L385.53,209.17L390.21,209.17L394.89,209.17L399.57,209.17L404.25,209.17L408.93,209.17L413.61,209.18L418.3,209.18L422.98,204.75L427.66,204.75L432.34,204.74L437.02,204.74L441.7,204.74L446.38,204.74L451.06,204.75L455.74,204.75L460.42,204.75L465.11,204.75L469.79,204.75L474.47,204.75L479.15,204.75L483.83,83.355L488.51,83.356L493.19,83.296L497.87,83.297L502.55,83.298L507.23,83.299L511.91,83.301L516.6,83.302L521.28,83.294L525.96,83.295L530.64,83.296L535.32,83.298L540,83.299" style="fill:none;stroke:#4575B4;stroke-width:0.625" />
<path d="M76.588,298.9L81.268,298.9L85.949,298.9L90.63,298.9L95.311,298.9L99.992,298.9L104.67,298.9L109.35,298.9L114.03,298.9L118.72,298.9L123.4,298.9L128.08,298.9L132.76,298.9L137.44,298.9L142.12,298.9L146.8,298.9L151.48,298.9L156.16,298.9L160.84,298.9L165.53,298.9L170.21,298.9L174.89,298.9L179.57,298.9L184.25,298.9L188.93,298.9L193.61,298.9L198.29,298.9L202.97,298.9L207.65,298.9L212.33,298.9L217.02,298.9L221.7,298.9L226.38,298.9L231.06,298.9L235.74,298.9L240.42,298.9L245.1,298.9L249.78,298.9L254.46,298.9L259.14,298.9L263.82,298.9L268.51,298.9L273.19,298.9L277.87,298.9L282.55,298.9L287.23,298.9L291.91,298.9L296.59,298.9L301.27,298.9L305.95,298.9L310.63,298.9L315.32,298.9L320,298.9L324.68,298.9L329.36,298.9L334.04,298.9L338.72,298.9L343.4,298.9L348.08,298.9L352.76,298.9L357.44,298.9L362.12,298.9L366.81,298.9L371.49,298.9L376.17,298.9L380.85,298.9L385.53,298.9L390.21,298.9L394.89,298.9L399.57,298.9L404.25,298.9L408.93,298.9L413.61,298.9L418.3,298.9L422.98,298.9L427.66,298.9L432.34,298.9L437.02,298.9L441.7,298.9L446.38,298.9L451.06,298.9L455.74,298.9L460.42,298.9L465.11,298.9L469.79,298.9L474.47,298.9L479.15,298.9L483.83,298.9L488.51,298.9L493.19,298.9L497.87,298.9L502.55,298.9L507.23,298.9L511.91,298.9L516.6,298.9L521.28,298.9L525.96,298.9L530.64,298.9L535.32,298.9L540,298.9" style="fill:none;stroke:#D73027;stroke-width:0.625" />
<path d="M76.588,341.93L81.268,341.93L85.949,341.93L90.63,341.93L95.311,341.93L99.992,341.93L104.67,341.93L109.35,341.93L114.03,341.93L118.72,341.93L123.4,341.93L128.08,341.93L132.76,341.93L137.44,341.93L142.12,341.93L146.8,341.93L151.48,341.93L156.16,341.93L160.84,341.93L165.53,341.93L170.21,341.93L174.89,341.93L179.57,341.93L184.25,341.93L188.93,341.93L193.61,341.93L198.29,341.93L202.97,341.93L207.65,341.93L212.33,341.93L217.02,341.93L221.7,341.93L226.38,341.93L231.06,341.93L235.74,341.93L240.42,341.93L245.1,341.93L249.78,341.93L254.46,341.93L259.14,341.93L263.82,341.93L268.51,341.93L273.19,341.93L277.87,341.91L282.55,341.91L287.23,341.91L291.91,341.91L296.59,341.91L301.27,341.91L305.95,341.91L310.63,341.91L315.32,341.91L320,341.91L324.68,341.91L329.36,341.91L334.04,341.91L338.72,341.91L343.4,341.91L348.08,341.91L352.76,341.91L357.44,341.91L362.12,341.91L366.81,341.91L371.49,341.91L376.17,341.91L380.85,341.91L385.53,341.91L390.21,341.91L394.89,341.91L399.57,341.91L404.25,341.91L408.93,341.91L413.61,341.91L418.3,341.91L422.98,341.91L427.66,341.91L432.34,341.91L437.02,341.91L441.7,341.91L446.38,341.91L451.06,341.91L455.74,341.91L460.42,341.91L465.11,341.91L469.79,341.91L474.47,341.91L479.15,341.91L483.83,341.91L488.51,341.91L493.19,341.91L497.87,341.91L502.55,341.91L507.23,341.91L511.91,341.91L516.6,341.91L521.28,341.91L525.96,341.91L530.64,341.91L535.32,341.91L540,341.91" style="fill:none;stroke:#FEE090;stroke-width:0.625" />
<path d="M76.588,341.93L81.268,341.93L85.949,341.93L90.63,341.93L95.311,341.93L99.992,341.93L104.67,341.93L109.35,341.93L114.03,341.93L118.72,341.93L123.4,341.93L128.08,341.93L132.76,341.93L137.44,341.93L142.12,341.93L146.8,341.93L151.48,341.93L156.16,341.93L160.84,341.93L165.53,341.93L170.21,341.93L174.89,341.93L179.57,341.93L184.25,341.93L188.93,341.93L193.61,341.93L198.29,341.93L202.97,341.93L207.65,341.93L212.33,341.93L217.02,341.93L221.7,341.93L226.38,341.93L231.06,341.93L235.74,341.93L240.42,341.93L245.1,341.93L249.78,341.93L254.46,341.93L259.14,341.93L263.82,341.93L268.51,341.93L273.19,341.93L277.87,341.91L282.55,341.91L287.23,341.91L291.91,341.91L296.59,341.91L301.27,341.91L305.95,341.91L310.63,341.91L315.32,341.91L320,341.91L324.68,341.91L329.36,341.91L334.04,341.91L338.72,341.91L343.4,341.91L348.08,341.91L352.76,341.91L357.44,341.91L362.12,341.91L366.81,341.91L371.49,341.91L376.17,341.91L380.85,341.91L385.53,341.91L390.21,341.91L394.89,341.91L399.57,341.91L404.25,341.91L408.93,341.91L413.61,341.91L418.3,341.91L422.98,341.91L427.66,341.91L432.34,341.91L437.02,341.91L441.7,341.91L446.38,341.91L451.06,341.91L455.74,341.91L460.42,341.91L465.11,341.91L469.79,341.91L474.47,341.91L479.15,341.91L483.83,341.91L488.51,341.91L493.19,341.91L497.87,341.91L502.55,341.91L507.23,341.91L511.91,341.91L516.6,341.91L521.28,341.91L525.96,341.91L530.64,341.91L535.32,341.91L540,341.91" style="fill:none;stroke:#FC8D59;stroke-width:0.625" />
<path d="M515,94.698L540,94.698" style="fill:none;stroke:#4575B4;stroke-width:0.625" />
<text x="409.62" y="-88.908" transform="scale(1, -1)"
	style="font-family:Times;font-weight:normal;font-style:normal;font-size:12pt">current heap size</text>
<path d="M515,80.838L540,80.838" style="fill:none;stroke:#D73027;stroke-width:0.625" />
<text x="425.44" y="-75.047" transform="scale(1, -1)"
	style="font-family:Times;font-weight:normal;font-style:normal;font-size:12pt">total heap size</text>
<path d="M515,66.977L540,66.977" style="fill:none;stroke:#FEE090;stroke-width:0.625" />
<text x="347.52" y="-61.187" transform="scale(1, -1)"
	style="font-family:Times;font-weight:normal;font-style:normal;font-size:12pt">memory allocated from OS</text>
<path d="M515,53.117L540,53.117" style="fill:none;stroke:#FC8D59;stroke-width:0.625" />
<text x="323.78" y="-47.327" transform="scale(1, -1)"
	style="font-family:Times;font-weight:normal;font-style:normal;font-size:12pt">effective memory consumption</text>
</g>
</svg>
