<?xml version="1.0"?>
<!-- Generated by SVGo and Plotinum VG -->
<svg width="6in" height="4in"
	xmlns="http://www.w3.org/2000/svg" 
	xmlns:xlink="http://www.w3.org/1999/xlink">
<g transform="scale(1, -1) translate(0, -360)">
<path d="M0,0L540,0L540,360L0,360Z" style="fill:#FFFFFF" />
<text x="113.16" y="-347.28" transform="scale(1, -1)"
	style="font-family:Times;font-weight:normal;font-style:normal;font-size:12pt">archive/tar memory usage for 100 files, 1.0MB each</text>
<text x="258.75" y="-5.355" transform="scale(1, -1)"
	style="font-family:Times;font-weight:normal;font-style:normal;font-size:12pt">Files in archive</text>
<text x="66.862" y="-19.025" transform="scale(1, -1)"
	style="font-family:Times;font-weight:normal;font-style:normal;font-size:10pt">0</text>
<text x="206.17" y="-19.025" transform="scale(1, -1)"
	style="font-family:Times;font-weight:normal;font-style:normal;font-size:10pt">30</text>
<text x="348.59" y="-19.025" transform="scale(1, -1)"
	style="font-family:Times;font-weight:normal;font-style:normal;font-size:10pt">60</text>
<text x="491.02" y="-19.025" transform="scale(1, -1)"
	style="font-family:Times;font-weight:normal;font-style:normal;font-size:10pt">90</text>
<path d="M69.987,29.625L69.987,39.625" style="fill:none;stroke:#000000;stroke-width:0.625" />
<path d="M212.42,29.625L212.42,39.625" style="fill:none;stroke:#000000;stroke-width:0.625" />
<path d="M354.84,29.625L354.84,39.625" style="fill:none;stroke:#000000;stroke-width:0.625" />
<path d="M497.27,29.625L497.27,39.625" style="fill:none;stroke:#000000;stroke-width:0.625" />
<path d="M117.46,34.625L117.46,39.625" style="fill:none;stroke:#000000;stroke-width:0.625" />
<path d="M164.94,34.625L164.94,39.625" style="fill:none;stroke:#000000;stroke-width:0.625" />
<path d="M259.89,34.625L259.89,39.625" style="fill:none;stroke:#000000;stroke-width:0.625" />
<path d="M307.37,34.625L307.37,39.625" style="fill:none;stroke:#000000;stroke-width:0.625" />
<path d="M402.32,34.625L402.32,39.625" style="fill:none;stroke:#000000;stroke-width:0.625" />
<path d="M449.8,34.625L449.8,39.625" style="fill:none;stroke:#000000;stroke-width:0.625" />
<path d="M69.987,39.625L540,39.625" style="fill:none;stroke:#000000;stroke-width:0.625" />
<g transform="rotate(90)">
<text x="149.27" y="12.72" transform="scale(1, -1)"
	style="font-family:Times;font-weight:normal;font-style:normal;font-size:12pt">Memory usage</text>
</g>
<text x="35.087" y="-41.363" transform="scale(1, -1)"
	style="font-family:Times;font-weight:normal;font-style:normal;font-size:10pt">0B</text>
<text x="18.075" y="-137.55" transform="scale(1, -1)"
	style="font-family:Times;font-weight:normal;font-style:normal;font-size:10pt">6.0EB</text>
<text x="21.2" y="-233.75" transform="scale(1, -1)"
	style="font-family:Times;font-weight:normal;font-style:normal;font-size:10pt">12EB</text>
<text x="21.2" y="-329.94" transform="scale(1, -1)"
	style="font-family:Times;font-weight:normal;font-style:normal;font-size:10pt">18EB</text>
<text x="18.075" y="-73.426" transform="scale(1, -1)"
	style="font-family:Times;font-weight:normal;font-style:normal;font-size:10pt">2.0EB</text>
<text x="18.075" y="-105.49" transform="scale(1, -1)"
	style="font-family:Times;font-weight:normal;font-style:normal;font-size:10pt">4.0EB</text>
<text x="18.075" y="-169.62" transform="scale(1, -1)"
	style="font-family:Times;font-weight:normal;font-style:normal;font-size:10pt">8.0EB</text>
<text x="21.2" y="-201.68" transform="scale(1, -1)"
	style="font-family:Times;font-weight:normal;font-style:normal;font-size:10pt">10EB</text>
<text x="21.2" y="-265.81" transform="scale(1, -1)"
	style="font-family:Times;font-weight:normal;font-style:normal;font-size:10pt">14EB</text>
<text x="21.2" y="-297.87" transform="scale(1, -1)"
	style="font-family:Times;font-weight:normal;font-style:normal;font-size:10pt">16EB</text>
<path d="M52.8,46.188L62.8,46.188" style="fill:none;stroke:#000000;stroke-width:0.625" />
<path d="M52.8,142.38L62.8,142.38" style="fill:none;stroke:#000000;stroke-width:0.625" />
<path d="M52.8,238.57L62.8,238.57" style="fill:none;stroke:#000000;stroke-width:0.625" />
<path d="M52.8,334.76L62.8,334.76" style="fill:none;stroke:#000000;stroke-width:0.625" />
<path d="M52.8,78.251L62.8,78.251" style="fill:none;stroke:#000000;stroke-width:0.625" />
<path d="M52.8,110.32L62.8,110.32" style="fill:none;stroke:#000000;stroke-width:0.625" />
<path d="M52.8,174.44L62.8,174.44" style="fill:none;stroke:#000000;stroke-width:0.625" />
<path d="M52.8,206.51L62.8,206.51" style="fill:none;stroke:#000000;stroke-width:0.625" />
<path d="M52.8,270.63L62.8,270.63" style="fill:none;stroke:#000000;stroke-width:0.625" />
<path d="M52.8,302.7L62.8,302.7" style="fill:none;stroke:#000000;stroke-width:0.625" />
<path d="M62.8,46.188L62.8,341.93" style="fill:none;stroke:#000000;stroke-width:0.625" />
<path d="M69.987,46.188L69.987,341.93" style="fill:none;stroke:#808080;stroke-width:0.3125" />
<path d="M212.42,46.188L212.42,341.93" style="fill:none;stroke:#808080;stroke-width:0.3125" />
<path d="M354.84,46.188L354.84,341.93" style="fill:none;stroke:#808080;stroke-width:0.3125" />
<path d="M497.27,46.188L497.27,341.93" style="fill:none;stroke:#808080;stroke-width:0.3125" />
<path d="M69.987,46.188L540,46.188" style="fill:none;stroke:#808080;stroke-width:0.3125" />
<path d="M69.987,142.38L540,142.38" style="fill:none;stroke:#808080;stroke-width:0.3125" />
<path d="M69.987,238.57L540,238.57" style="fill:none;stroke:#808080;stroke-width:0.3125" />
<path d="M69.987,334.76L540,334.76" style="fill:none;stroke:#808080;stroke-width:0.3125" />
<path d="M69.987,78.251L540,78.251" style="fill:none;stroke:#808080;stroke-width:0.3125" />
<path d="M69.987,110.32L540,110.32" style="fill:none;stroke:#808080;stroke-width:0.3125" />
<path d="M69.987,174.44L540,174.44" style="fill:none;stroke:#808080;stroke-width:0.3125" />
<path d="M69.987,206.51L540,206.51" style="fill:none;stroke:#808080;stroke-width:0.3125" />
<path d="M69.987,270.63L540,270.63" style="fill:none;stroke:#808080;stroke-width:0.3125" />
<path d="M69.987,302.7L540,302.7" style="fill:none;stroke:#808080;stroke-width:0.3125" />
<path d="M69.987,46.188L74.735,46.188L79.483,46.188L84.23,46.188L88.978,46.188L93.726,46.188L98.473,46.188L103.22,46.188L107.97,46.188L112.72,46.188L117.46,46.188L122.21,46.188L126.96,46.188L131.71,46.188L136.45,46.188L141.2,46.188L145.95,46.188L150.7,46.188L155.44,46.188L160.19,46.188L164.94,46.188L169.69,46.188L174.43,46.188L179.18,46.188L183.93,46.188L188.68,46.188L193.43,46.188L198.17,46.188L202.92,46.188L207.67,46.188L212.42,46.188L217.16,46.188L221.91,46.188L226.66,46.188L231.41,46.188L236.15,46.188L240.9,46.188L245.65,46.188L250.4,46.188L255.14,46.188L259.89,46.188L264.64,46.188L269.39,46.188L274.13,46.188L278.88,46.188L283.63,46.188L288.38,46.188L293.12,46.188L297.87,46.188L302.62,46.188L307.37,46.188L312.12,46.188L316.86,46.188L321.61,46.188L326.36,46.188L331.11,46.188L335.85,46.188L340.6,46.188L345.35,46.188L350.1,46.188L354.84,46.188L359.59,46.188L364.34,46.188L369.09,46.188L373.83,46.188L378.58,46.188L383.33,46.188L388.08,46.188L392.82,46.188L397.57,46.188L402.32,46.188L407.07,46.188L411.81,46.188L416.56,46.188L421.31,46.188L426.06,46.188L430.81,46.188L435.55,46.188L440.3,46.188L445.05,46.188L449.8,46.188L454.54,46.188L459.29,46.188L464.04,46.188L468.79,46.188L473.53,46.188L478.28,46.188L483.03,46.188L487.78,46.188L492.52,46.188L497.27,46.188L502.02,46.188L506.77,46.188L511.51,46.188L516.26,46.188L521.01,46.188L525.76,46.188L530.5,46.188L535.25,46.188L540,46.188" style="fill:none;stroke:#4575B4;stroke-width:0.625" />
<path d="M69.987,46.188L74.735,46.188L79.483,46.188L84.23,46.188L88.978,46.188L93.726,46.188L98.473,46.188L103.22,46.188L107.97,46.188L112.72,46.188L117.46,46.188L122.21,46.188L126.96,46.188L131.71,46.188L136.45,46.188L141.2,46.188L145.95,46.188L150.7,46.188L155.44,46.188L160.19,46.188L164.94,46.188L169.69,46.188L174.43,46.188L179.18,46.188L183.93,46.188L188.68,46.188L193.43,46.188L198.17,46.188L202.92,46.188L207.67,46.188L212.42,46.188L217.16,46.188L221.91,46.188L226.66,46.188L231.41,46.188L236.15,46.188L240.9,46.188L245.65,46.188L250.4,46.188L255.14,46.188L259.89,46.188L264.64,46.188L269.39,46.188L274.13,46.188L278.88,46.188L283.63,46.188L288.38,46.188L293.12,46.188L297.87,46.188L302.62,46.188L307.37,46.188L312.12,46.188L316.86,46.188L321.61,46.188L326.36,46.188L331.11,46.188L335.85,46.188L340.6,46.188L345.35,46.188L350.1,46.188L354.84,46.188L359.59,46.188L364.34,46.188L369.09,46.188L373.83,46.188L378.58,46.188L383.33,46.188L388.08,46.188L392.82,46.188L397.57,46.188L402.32,46.188L407.07,46.188L411.81,46.188L416.56,46.188L421.31,46.188L426.06,46.188L430.81,46.188L435.55,46.188L440.3,46.188L445.05,46.188L449.8,46.188L454.54,46.188L459.29,46.188L464.04,46.188L468.79,46.188L473.53,46.188L478.28,46.188L483.03,46.188L487.78,46.188L492.52,46.188L497.27,46.188L502.02,46.188L506.77,46.188L511.51,46.188L516.26,46.188L521.01,46.188L525.76,46.188L530.5,46.188L535.25,46.188L540,46.188" style="fill:none;stroke:#D73027;stroke-width:0.625" />
<path d="M69.987,46.188L74.735,46.188L79.483,46.188L84.23,46.188L88.978,46.188L93.726,46.188L98.473,46.188L103.22,46.188L107.97,46.188L112.72,46.188L117.46,46.188L122.21,46.188L126.96,46.188L131.71,46.188L136.45,46.188L141.2,46.188L145.95,46.188L150.7,46.188L155.44,46.188L160.19,46.188L164.94,46.188L169.69,46.188L174.43,46.188L179.18,46.188L183.93,46.188L188.68,46.188L193.43,46.188L198.17,46.188L202.92,46.188L207.67,46.188L212.42,46.188L217.16,46.188L221.91,46.188L226.66,46.188L231.41,46.188L236.15,46.188L240.9,46.188L245.65,46.188L250.4,46.188L255.14,46.188L259.89,46.188L264.64,46.188L269.39,46.188L274.13,341.93L278.88,341.93L283.63,341.93L288.38,341.93L293.12,341.93L297.87,341.93L302.62,341.93L307.37,341.93L312.12,341.93L316.86,341.93L321.61,341.93L326.36,341.93L331.11,341.93L335.85,341.93L340.6,341.93L345.35,341.93L350.1,341.93L354.84,341.93L359.59,341.93L364.34,341.93L369.09,341.93L373.83,341.93L378.58,341.93L383.33,341.93L388.08,341.93L392.82,341.93L397.57,341.93L402.32,341.93L407.07,341.93L411.81,341.93L416.56,341.93L421.31,341.93L426.06,341.93L430.81,341.93L435.55,341.93L440.3,341.93L445.05,341.93L449.8,341.93L454.54,341.93L459.29,341.93L464.04,341.93L468.79,341.93L473.53,341.93L478.28,341.93L483.03,341.93L487.78,341.93L492.52,341.93L497.27,341.93L502.02,341.93L506.77,341.93L511.51,341.93L516.26,341.93L521.01,341.93L525.76,341.93L530.5,341.93L535.25,341.93L540,341.93" style="fill:none;stroke:#FEE090;stroke-width:0.625" />
<path d="M69.987,46.188L74.735,46.188L79.483,46.188L84.23,46.188L88.978,46.188L93.726,46.188L98.473,46.188L103.22,46.188L107.97,46.188L112.72,46.188L117.46,46.188L122.21,46.188L126.96,46.188L131.71,46.188L136.45,46.188L141.2,46.188L145.95,46.188L150.7,46.188L155.44,46.188L160.19,46.188L164.94,46.188L169.69,46.188L174.43,46.188L179.18,46.188L183.93,46.188L188.68,46.188L193.43,46.188L198.17,46.188L202.92,46.188L207.67,46.188L212.42,46.188L217.16,46.188L221.91,46.188L226.66,46.188L231.41,46.188L236.15,46.188L240.9,46.188L245.65,46.188L250.4,46.188L255.14,46.188L259.89,46.188L264.64,46.188L269.39,46.188L274.13,341.93L278.88,341.93L283.63,341.93L288.38,341.93L293.12,341.93L297.87,341.93L302.62,341.93L307.37,341.93L312.12,341.93L316.86,341.93L321.61,341.93L326.36,341.93L331.11,341.93L335.85,341.93L340.6,341.93L345.35,341.93L350.1,341.93L354.84,341.93L359.59,341.93L364.34,341.93L369.09,341.93L373.83,341.93L378.58,341.93L383.33,341.93L388.08,341.93L392.82,341.93L397.57,341.93L402.32,341.93L407.07,341.93L411.81,341.93L416.56,341.93L421.31,341.93L426.06,341.93L430.81,341.93L435.55,341.93L440.3,341.93L445.05,341.93L449.8,341.93L454.54,341.93L459.29,341.93L464.04,341.93L468.79,341.93L473.53,341.93L478.28,341.93L483.03,341.93L487.78,341.93L492.52,341.93L497.27,341.93L502.02,341.93L506.77,341.93L511.51,341.93L516.26,341.93L521.01,341.93L525.76,341.93L530.5,341.93L535.25,341.93L540,341.93" style="fill:none;stroke:#FC8D59;stroke-width:0.625" />
<path d="M515,94.698L540,94.698" style="fill:none;stroke:#4575B4;stroke-width:0.625" />
<text x="409.62" y="-88.908" transform="scale(1, -1)"
	style="font-family:Times;font-weight:normal;font-style:normal;font-size:12pt">current heap size</text>
<path d="M515,80.838L540,80.838" style="fill:none;stroke:#D73027;stroke-width:0.625" />
<text x="425.44" y="-75.047" transform="scale(1, -1)"
	style="font-family:Times;font-weight:normal;font-style:normal;font-size:12pt">total heap size</text>
<path d="M515,66.977L540,66.977" style="fill:none;stroke:#FEE090;stroke-width:0.625" />
<text x="347.52" y="-61.187" transform="scale(1, -1)"
	style="font-family:Times;font-weight:normal;font-style:normal;font-size:12pt">memory allocated from OS</text>
<path d="M515,53.117L540,53.117" style="fill:none;stroke:#FC8D59;stroke-width:0.625" />
<text x="323.78" y="-47.327" transform="scale(1, -1)"
	style="font-family:Times;font-weight:normal;font-style:normal;font-size:12pt">effective memory consumption</text>
</g>
</svg>
