<?xml version="1.0"?>
<!-- Generated by SVGo and Plotinum VG -->
<svg width="6in" height="4in"
	xmlns="http://www.w3.org/2000/svg" 
	xmlns:xlink="http://www.w3.org/1999/xlink">
<g transform="scale(1, -1) translate(0, -360)">
<path d="M0,0L540,0L540,360L0,360Z" style="fill:#FFFFFF" />
<text x="113.16" y="-347.28" transform="scale(1, -1)"
	style="font-family:Times;font-weight:normal;font-style:normal;font-size:12pt">archive/tar memory usage for 100 files, 1.0MB each</text>
<text x="262.05" y="-5.355" transform="scale(1, -1)"
	style="font-family:Times;font-weight:normal;font-style:normal;font-size:12pt">Files in archive</text>
<text x="73.463" y="-19.025" transform="scale(1, -1)"
	style="font-family:Times;font-weight:normal;font-style:normal;font-size:10pt">0</text>
<text x="210.77" y="-19.025" transform="scale(1, -1)"
	style="font-family:Times;font-weight:normal;font-style:normal;font-size:10pt">30</text>
<text x="351.19" y="-19.025" transform="scale(1, -1)"
	style="font-family:Times;font-weight:normal;font-style:normal;font-size:10pt">60</text>
<text x="491.62" y="-19.025" transform="scale(1, -1)"
	style="font-family:Times;font-weight:normal;font-style:normal;font-size:10pt">90</text>
<path d="M76.588,29.625L76.588,39.625" style="fill:none;stroke:#000000;stroke-width:0.625" />
<path d="M217.02,29.625L217.02,39.625" style="fill:none;stroke:#000000;stroke-width:0.625" />
<path d="M357.44,29.625L357.44,39.625" style="fill:none;stroke:#000000;stroke-width:0.625" />
<path d="M497.87,29.625L497.87,39.625" style="fill:none;stroke:#000000;stroke-width:0.625" />
<path d="M123.4,34.625L123.4,39.625" style="fill:none;stroke:#000000;stroke-width:0.625" />
<path d="M170.21,34.625L170.21,39.625" style="fill:none;stroke:#000000;stroke-width:0.625" />
<path d="M263.82,34.625L263.82,39.625" style="fill:none;stroke:#000000;stroke-width:0.625" />
<path d="M310.63,34.625L310.63,39.625" style="fill:none;stroke:#000000;stroke-width:0.625" />
<path d="M404.25,34.625L404.25,39.625" style="fill:none;stroke:#000000;stroke-width:0.625" />
<path d="M451.06,34.625L451.06,39.625" style="fill:none;stroke:#000000;stroke-width:0.625" />
<path d="M76.588,39.625L540,39.625" style="fill:none;stroke:#000000;stroke-width:0.625" />
<g transform="rotate(90)">
<text x="148.84" y="12.72" transform="scale(1, -1)"
	style="font-family:Times;font-weight:normal;font-style:normal;font-size:12pt">Memory usage</text>
</g>
<text x="18.075" y="-127.28" transform="scale(1, -1)"
	style="font-family:Times;font-weight:normal;font-style:normal;font-size:10pt">600MB</text>
<text x="18.075" y="-204.85" transform="scale(1, -1)"
	style="font-family:Times;font-weight:normal;font-style:normal;font-size:10pt">700MB</text>
<text x="18.075" y="-272.05" transform="scale(1, -1)"
	style="font-family:Times;font-weight:normal;font-style:normal;font-size:10pt">800MB</text>
<text x="18.075" y="-331.33" transform="scale(1, -1)"
	style="font-family:Times;font-weight:normal;font-style:normal;font-size:10pt">900MB</text>
<path d="M59.4,132.1L69.4,132.1" style="fill:none;stroke:#000000;stroke-width:0.625" />
<path d="M59.4,209.68L69.4,209.68" style="fill:none;stroke:#000000;stroke-width:0.625" />
<path d="M59.4,276.88L69.4,276.88" style="fill:none;stroke:#000000;stroke-width:0.625" />
<path d="M59.4,336.15L69.4,336.15" style="fill:none;stroke:#000000;stroke-width:0.625" />
<path d="M69.4,46.188L69.4,341.06" style="fill:none;stroke:#000000;stroke-width:0.625" />
<path d="M76.588,46.188L76.588,341.06" style="fill:none;stroke:#808080;stroke-width:0.3125" />
<path d="M217.02,46.188L217.02,341.06" style="fill:none;stroke:#808080;stroke-width:0.3125" />
<path d="M357.44,46.188L357.44,341.06" style="fill:none;stroke:#808080;stroke-width:0.3125" />
<path d="M497.87,46.188L497.87,341.06" style="fill:none;stroke:#808080;stroke-width:0.3125" />
<path d="M76.588,-769.58L540,-769.58" style="fill:none;stroke:#808080;stroke-width:0.3125" />
<path d="M76.588,-420.76L540,-420.76" style="fill:none;stroke:#808080;stroke-width:0.3125" />
<path d="M76.588,-216.71L540,-216.71" style="fill:none;stroke:#808080;stroke-width:0.3125" />
<path d="M76.588,-71.941L540,-71.941" style="fill:none;stroke:#808080;stroke-width:0.3125" />
<path d="M76.588,40.354L540,40.354" style="fill:none;stroke:#808080;stroke-width:0.3125" />
<path d="M76.588,132.1L540,132.1" style="fill:none;stroke:#808080;stroke-width:0.3125" />
<path d="M76.588,209.68L540,209.68" style="fill:none;stroke:#808080;stroke-width:0.3125" />
<path d="M76.588,276.88L540,276.88" style="fill:none;stroke:#808080;stroke-width:0.3125" />
<path d="M76.588,336.15L540,336.15" style="fill:none;stroke:#808080;stroke-width:0.3125" />
<path d="M76.588,389.17L540,389.17" style="fill:none;stroke:#808080;stroke-width:0.3125" />
<path d="M76.588,737.99L540,737.99" style="fill:none;stroke:#808080;stroke-width:0.3125" />
<path d="M76.588,942.03L540,942.03" style="fill:none;stroke:#808080;stroke-width:0.3125" />
<path d="M76.588,1086.8L540,1086.8" style="fill:none;stroke:#808080;stroke-width:0.3125" />
<path d="M76.588,1199.1L540,1199.1" style="fill:none;stroke:#808080;stroke-width:0.3125" />
<path d="M76.588,1290.9L540,1290.9" style="fill:none;stroke:#808080;stroke-width:0.3125" />
<path d="M76.588,1368.4L540,1368.4" style="fill:none;stroke:#808080;stroke-width:0.3125" />
<path d="M76.588,1435.6L540,1435.6" style="fill:none;stroke:#808080;stroke-width:0.3125" />
<path d="M76.588,1494.9L540,1494.9" style="fill:none;stroke:#808080;stroke-width:0.3125" />
<path d="M76.588,1547.9L540,1547.9" style="fill:none;stroke:#808080;stroke-width:0.3125" />
<path d="M76.588,46.188L81.268,48.181L85.949,53.118L90.63,53.119L95.311,53.12L99.992,62.857L104.67,62.858L109.35,62.859L114.03,62.861L118.72,62.862L123.4,82.705L128.08,82.706L132.76,82.707L137.44,82.708L142.12,82.709L146.8,82.71L151.48,82.711L156.16,82.712L160.84,82.713L165.53,82.714L170.21,82.715L174.89,121.05L179.57,121.05L184.25,121.05L188.93,121.05L193.61,121.05L198.29,121.05L202.97,121.05L207.65,121.05L212.33,121.06L217.02,121.06L221.7,121.06L226.38,121.06L231.06,121.06L235.74,121.06L240.42,121.06L245.1,121.06L249.78,121.06L254.46,121.06L259.14,121.06L263.82,121.07L268.51,121.07L273.19,121.07L277.87,190.69L282.55,190.69L287.23,190.69L291.91,190.69L296.59,190.69L301.27,190.69L305.95,190.69L310.63,190.69L315.32,190.69L320,190.69L324.68,190.69L329.36,190.7L334.04,190.7L338.72,190.7L343.4,190.7L348.08,190.7L352.76,190.7L357.44,190.7L362.12,190.7L366.81,190.7L371.49,190.7L376.17,190.7L380.85,190.7L385.53,190.7L390.21,190.71L394.89,190.71L399.57,190.71L404.25,190.71L408.93,190.71L413.61,190.71L418.3,190.71L422.98,190.71L427.66,190.71L432.34,190.71L437.02,190.71L441.7,190.71L446.38,190.71L451.06,190.72L455.74,190.72L460.42,190.72L465.11,190.72L469.79,190.72L474.47,190.72L479.15,190.72L483.83,306.96L488.51,306.95L493.19,306.95L497.87,306.95L502.55,306.95L507.23,306.95L511.91,306.95L516.6,306.95L521.28,306.95L525.96,306.95L530.64,306.95L535.32,306.95L540,306.96" style="fill:none;stroke:#EE2E2F;stroke-width:0.625" />
<path d="M76.588,47.857L81.268,49.932L85.949,54.955L90.63,54.955L95.311,54.955L99.992,64.727L104.67,64.727L109.35,64.727L114.03,64.727L118.72,64.727L123.4,84.566L128.08,84.566L132.76,84.566L137.44,84.566L142.12,84.566L146.8,84.566L151.48,84.566L156.16,84.566L160.84,84.566L165.53,84.566L170.21,84.566L174.89,122.83L179.57,122.83L184.25,122.83L188.93,122.83L193.61,122.83L198.29,122.83L202.97,122.83L207.65,122.83L212.33,122.83L217.02,122.83L221.7,122.83L226.38,122.83L231.06,122.83L235.74,122.83L240.42,122.83L245.1,122.83L249.78,122.83L254.46,122.83L259.14,122.83L263.82,122.83L268.51,122.83L273.19,122.83L277.87,192.27L282.55,192.27L287.23,192.27L291.91,192.27L296.59,192.27L301.27,192.27L305.95,192.27L310.63,192.27L315.32,192.27L320,192.27L324.68,192.27L329.36,192.27L334.04,192.27L338.72,192.27L343.4,192.27L348.08,192.27L352.76,192.27L357.44,192.27L362.12,192.27L366.81,192.27L371.49,192.27L376.17,192.27L380.85,192.27L385.53,192.27L390.21,192.27L394.89,192.27L399.57,192.27L404.25,192.27L408.93,192.27L413.61,192.27L418.3,192.27L422.98,192.27L427.66,192.27L432.34,192.27L437.02,192.27L441.7,192.27L446.38,192.27L451.06,192.27L455.74,192.27L460.42,192.27L465.11,192.27L469.79,192.27L474.47,192.27L479.15,192.27L483.83,308.24L488.51,308.24L493.19,308.24L497.87,308.24L502.55,308.24L507.23,308.24L511.91,308.24L516.6,308.24L521.28,308.24L525.96,308.24L530.64,308.24L535.32,308.24L540,308.24" style="fill:none;stroke:#008C48;stroke-width:0.625" />
<path d="M76.588,81.933L81.268,83.997L85.949,88.988L90.63,88.988L95.311,88.988L99.992,98.704L104.67,98.704L109.35,98.704L114.03,98.704L118.72,98.704L123.4,118.43L128.08,118.43L132.76,118.43L137.44,118.43L142.12,118.43L146.8,118.43L151.48,118.43L156.16,118.43L160.84,118.43L165.53,118.43L170.21,118.43L174.89,156.47L179.57,156.47L184.25,156.47L188.93,156.47L193.61,156.47L198.29,156.47L202.97,156.47L207.65,156.47L212.33,156.47L217.02,156.47L221.7,156.47L226.38,156.47L231.06,156.47L235.74,156.47L240.42,156.47L245.1,156.47L249.78,156.47L254.46,156.47L259.14,156.47L263.82,156.47L268.51,156.47L273.19,156.47L277.87,225.58L282.55,225.58L287.23,225.58L291.91,225.58L296.59,225.58L301.27,225.58L305.95,225.58L310.63,225.58L315.32,225.58L320,225.58L324.68,225.58L329.36,225.58L334.04,225.58L338.72,225.58L343.4,225.58L348.08,225.58L352.76,225.58L357.44,225.58L362.12,225.58L366.81,225.58L371.49,225.58L376.17,225.58L380.85,225.58L385.53,225.58L390.21,225.58L394.89,225.58L399.57,225.58L404.25,225.58L408.93,225.58L413.61,225.58L418.3,225.58L422.98,225.58L427.66,225.58L432.34,225.58L437.02,225.58L441.7,225.58L446.38,225.58L451.06,225.58L455.74,225.58L460.42,225.58L465.11,225.58L469.79,225.58L474.47,225.58L479.15,225.58L483.83,341.06L488.51,341.06L493.19,341.06L497.87,341.06L502.55,341.06L507.23,341.06L511.91,341.06L516.6,341.06L521.28,341.06L525.96,341.06L530.64,341.06L535.32,341.06L540,341.06" style="fill:none;stroke:#185AA9;stroke-width:0.625" />
<path d="M76.588,81.933L81.268,83.997L85.949,88.988L90.63,88.988L95.311,88.988L99.992,98.704L104.67,98.704L109.35,98.704L114.03,98.704L118.72,98.704L123.4,118.43L128.08,118.43L132.76,118.43L137.44,118.43L142.12,118.43L146.8,118.43L151.48,118.43L156.16,118.43L160.84,118.43L165.53,118.43L170.21,118.43L174.89,156.47L179.57,156.47L184.25,156.47L188.93,156.47L193.61,156.47L198.29,156.47L202.97,156.47L207.65,156.47L212.33,156.47L217.02,156.47L221.7,156.47L226.38,156.47L231.06,156.47L235.74,156.47L240.42,156.47L245.1,156.47L249.78,156.47L254.46,156.47L259.14,156.47L263.82,156.47L268.51,156.47L273.19,156.47L277.87,225.58L282.55,225.58L287.23,225.58L291.91,225.58L296.59,225.58L301.27,225.58L305.95,225.58L310.63,225.58L315.32,225.58L320,225.58L324.68,225.58L329.36,225.58L334.04,225.58L338.72,225.58L343.4,225.58L348.08,225.58L352.76,225.58L357.44,225.58L362.12,225.58L366.81,225.58L371.49,225.58L376.17,225.58L380.85,225.58L385.53,225.58L390.21,225.58L394.89,225.58L399.57,225.58L404.25,225.58L408.93,225.58L413.61,225.58L418.3,225.58L422.98,225.58L427.66,225.58L432.34,225.58L437.02,225.58L441.7,225.58L446.38,225.58L451.06,225.58L455.74,225.58L460.42,225.58L465.11,225.58L469.79,225.58L474.47,225.58L479.15,225.58L483.83,341.06L488.51,341.06L493.19,341.06L497.87,341.06L502.55,341.06L507.23,341.06L511.91,341.06L516.6,341.06L521.28,341.06L525.96,341.06L530.64,341.06L535.32,341.06L540,341.06" style="fill:none;stroke:#F47D23;stroke-width:0.625" />
<path d="M515,94.698L540,94.698" style="fill:none;stroke:#EE2E2F;stroke-width:0.625" />
<text x="409.62" y="-88.908" transform="scale(1, -1)"
	style="font-family:Times;font-weight:normal;font-style:normal;font-size:12pt">current heap size</text>
<path d="M515,80.838L540,80.838" style="fill:none;stroke:#008C48;stroke-width:0.625" />
<text x="425.44" y="-75.047" transform="scale(1, -1)"
	style="font-family:Times;font-weight:normal;font-style:normal;font-size:12pt">total heap size</text>
<path d="M515,66.977L540,66.977" style="fill:none;stroke:#185AA9;stroke-width:0.625" />
<text x="347.52" y="-61.187" transform="scale(1, -1)"
	style="font-family:Times;font-weight:normal;font-style:normal;font-size:12pt">memory allocated from OS</text>
<path d="M515,53.117L540,53.117" style="fill:none;stroke:#F47D23;stroke-width:0.625" />
<text x="230.88" y="-47.327" transform="scale(1, -1)"
	style="font-family:Times;font-weight:normal;font-style:normal;font-size:12pt">effective memory consumption of the program</text>
</g>
</svg>
